<svg xmlns="http://www.w3.org/2000/svg" xmlns:xlink="http://www.w3.org/1999/xlink" width="500" zoomAndPan="magnify" viewBox="0 0 375 374.999991" height="500" preserveAspectRatio="xMidYMid meet" version="1.0"><defs><clipPath id="35569bad84"><path d="M 37.5 37.5 L 319.5 37.5 L 319.5 324 L 37.5 324 Z M 37.5 37.5 " clip-rule="nonzero"/></clipPath></defs><rect x="-37.5" width="450" fill="#ffffff" y="-37.499999" height="449.999989" fill-opacity="1"/><rect x="-37.5" width="450" fill="#ffffff" y="-37.499999" height="449.999989" fill-opacity="1"/><g clip-path="url(#35569bad84)"><path fill="#000000" d="M 297.90625 312.851562 L 182.703125 37.5 L 164.800781 37.5 L 49.539062 312.851562 L 37.585938 312.851562 L 37.585938 324 L 78.367188 324 L 78.367188 312.851562 L 67.445312 312.851562 L 104.511719 224.25 L 211.589844 224.25 L 248.65625 312.851562 L 228.636719 312.851562 L 228.636719 324 L 319.414062 324 L 319.414062 312.851562 Z M 110.859375 209.160156 L 158.109375 96.320312 L 205.355469 209.160156 Z M 110.859375 209.160156 " fill-opacity="1" fill-rule="nonzero"/></g></svg>