<svg xmlns="http://www.w3.org/2000/svg" xmlns:xlink="http://www.w3.org/1999/xlink" width="500" zoomAndPan="magnify" viewBox="0 0 375 374.999991" height="500" preserveAspectRatio="xMidYMid meet" version="1.0"><defs><clipPath id="3b16352686"><path d="M 19.59375 19.59375 L 355.40625 19.59375 L 355.40625 355.40625 L 19.59375 355.40625 Z M 19.59375 19.59375 " clip-rule="nonzero"/></clipPath><clipPath id="3936d73293"><path d="M 187.5 19.59375 C 94.765625 19.59375 19.59375 94.765625 19.59375 187.5 C 19.59375 280.234375 94.765625 355.40625 187.5 355.40625 C 280.234375 355.40625 355.40625 280.234375 355.40625 187.5 C 355.40625 94.765625 280.234375 19.59375 187.5 19.59375 Z M 187.5 19.59375 " clip-rule="nonzero"/></clipPath><clipPath id="b0f21ddbb1"><path d="M 68.714844 42.574219 L 306.464844 42.574219 L 306.464844 284.074219 L 68.714844 284.074219 Z M 68.714844 42.574219 " clip-rule="nonzero"/></clipPath></defs><g clip-path="url(#3b16352686)"><g clip-path="url(#3936d73293)"><path fill="#ffffff" d="M 19.59375 19.59375 L 355.40625 19.59375 L 355.40625 355.40625 L 19.59375 355.40625 Z M 19.59375 19.59375 " fill-opacity="1" fill-rule="nonzero"/></g></g><g clip-path="url(#b0f21ddbb1)"><path fill="#5e17eb" d="M 288.085938 274.691406 L 191.039062 42.574219 L 175.957031 42.574219 L 78.859375 274.691406 L 68.789062 274.691406 L 68.789062 284.085938 L 103.144531 284.085938 L 103.144531 274.691406 L 93.941406 274.691406 L 125.167969 200 L 215.371094 200 L 246.597656 274.691406 L 229.730469 274.691406 L 229.730469 284.085938 L 306.203125 284.085938 L 306.203125 274.691406 Z M 130.515625 187.28125 L 170.316406 92.160156 L 210.121094 187.28125 Z M 130.515625 187.28125 " fill-opacity="1" fill-rule="nonzero"/></g></svg>