<svg xmlns="http://www.w3.org/2000/svg" xmlns:xlink="http://www.w3.org/1999/xlink" width="500" zoomAndPan="magnify" viewBox="0 0 375 374.999991" height="500" preserveAspectRatio="xMidYMid meet" version="1.0"><defs><clipPath id="ff648dd5ee"><path d="M 123 91.878906 L 251.984375 91.878906 L 251.984375 229.878906 L 123 229.878906 Z M 123 91.878906 " clip-rule="nonzero"/></clipPath></defs><g clip-path="url(#ff648dd5ee)"><path fill="#000000" d="M 249.808594 207.871094 L 233.050781 171.46875 C 232.425781 170.117188 231.074219 169.25 229.585938 169.25 L 195.152344 169.25 C 193.992188 169.25 193.214844 168.050781 193.691406 166.988281 L 201.886719 148.707031 C 202.453125 147.441406 204.246094 147.445312 204.8125 148.707031 L 206.625 152.78125 C 206.941406 153.484375 207.640625 153.941406 208.414062 153.941406 L 222.066406 153.941406 C 223.488281 153.941406 224.4375 152.472656 223.851562 151.179688 L 210.589844 121.863281 C 210.328125 121.289062 209.757812 120.925781 209.128906 120.925781 L 197.816406 120.925781 C 197.1875 120.925781 196.621094 121.289062 196.359375 121.863281 L 159.742188 202.789062 C 159.261719 203.847656 160.039062 205.046875 161.203125 205.046875 L 175.628906 205.046875 C 176.257812 205.046875 176.832031 204.679688 177.085938 204.105469 L 185.152344 186.128906 C 185.410156 185.554688 185.980469 185.183594 186.613281 185.183594 L 219.988281 185.183594 C 220.625 185.183594 221.199219 185.554688 221.457031 186.136719 L 231.980469 209.316406 C 232.792969 211.109375 231.484375 213.144531 229.515625 213.144531 L 145.542969 213.144531 C 143.570312 213.144531 142.257812 211.097656 143.085938 209.304688 L 187.9375 111.878906 C 188.828125 109.945312 190.765625 108.703125 192.894531 108.703125 L 203.816406 108.703125 C 206.035156 108.703125 207.832031 106.90625 207.832031 104.6875 L 207.832031 95.890625 C 207.832031 93.671875 206.035156 91.871094 203.816406 91.871094 L 188.640625 91.871094 C 182.546875 91.871094 176.964844 95.449219 174.417969 100.988281 L 128.242188 201.476562 L 125.332031 207.566406 C 122.992188 212.441406 123.320312 218.089844 126.203125 222.667969 C 129.085938 227.238281 134.039062 229.972656 139.445312 229.972656 L 235.546875 229.972656 C 240.886719 229.972656 245.808594 227.292969 248.703125 222.808594 C 251.597656 218.320312 252.011719 212.738281 249.808594 207.871094 " fill-opacity="1" fill-rule="nonzero"/></g></svg>